<mxfile host="app.diagrams.net" agent="Mozilla/5.0 (Windows NT 10.0; Win64; x64) AppleWebKit/537.36 (KHTML, like Gecko) Chrome/132.0.0.0 Safari/537.36" version="26.0.9">
  <diagram name="Сторінка-1" id="7CtlgLzdImtI6i3Kvkx-">
    <mxGraphModel dx="1475" dy="751" grid="1" gridSize="10" guides="1" tooltips="1" connect="1" arrows="1" fold="1" page="1" pageScale="1" pageWidth="3300" pageHeight="4681" math="0" shadow="0">
      <root>
        <mxCell id="0" />
        <mxCell id="1" parent="0" />
        <mxCell id="gRiRTF0oyaMVw7NNhwGu-3" value="" style="rounded=0;orthogonalLoop=1;jettySize=auto;html=1;endArrow=none;endFill=0;" parent="1" source="gRiRTF0oyaMVw7NNhwGu-1" target="gRiRTF0oyaMVw7NNhwGu-2" edge="1">
          <mxGeometry relative="1" as="geometry" />
        </mxCell>
        <mxCell id="gRiRTF0oyaMVw7NNhwGu-1" value="Student&lt;div&gt;&lt;br&gt;&lt;/div&gt;" style="shape=umlActor;verticalLabelPosition=bottom;verticalAlign=top;html=1;outlineConnect=0;" parent="1" vertex="1">
          <mxGeometry x="1500" y="410" width="30" height="60" as="geometry" />
        </mxCell>
        <mxCell id="gRiRTF0oyaMVw7NNhwGu-5" value="&amp;lt;&amp;lt; extend &amp;gt;&amp;gt;" style="rounded=0;orthogonalLoop=1;jettySize=auto;html=1;strokeColor=default;dashed=1;endArrow=none;endFill=0;curved=0;startArrow=open;startFill=0;" parent="1" source="gRiRTF0oyaMVw7NNhwGu-2" target="gRiRTF0oyaMVw7NNhwGu-4" edge="1">
          <mxGeometry relative="1" as="geometry">
            <Array as="points">
              <mxPoint x="1330" y="530" />
            </Array>
          </mxGeometry>
        </mxCell>
        <mxCell id="gRiRTF0oyaMVw7NNhwGu-7" value="&amp;lt;&amp;lt; extend &amp;gt;&amp;gt;" style="rounded=0;orthogonalLoop=1;jettySize=auto;html=1;startArrow=open;startFill=0;endArrow=none;endFill=0;dashed=1;" parent="1" source="gRiRTF0oyaMVw7NNhwGu-2" target="gRiRTF0oyaMVw7NNhwGu-6" edge="1">
          <mxGeometry relative="1" as="geometry" />
        </mxCell>
        <mxCell id="gRiRTF0oyaMVw7NNhwGu-9" value="&amp;lt;&amp;lt; extend &amp;gt;&amp;gt;" style="rounded=0;orthogonalLoop=1;jettySize=auto;html=1;dashed=1;startArrow=open;startFill=0;endArrow=none;endFill=0;" parent="1" source="gRiRTF0oyaMVw7NNhwGu-2" target="gRiRTF0oyaMVw7NNhwGu-8" edge="1">
          <mxGeometry relative="1" as="geometry" />
        </mxCell>
        <mxCell id="gRiRTF0oyaMVw7NNhwGu-54" value="&amp;lt;&amp;lt; extend &amp;gt;&amp;gt;" style="rounded=0;orthogonalLoop=1;jettySize=auto;html=1;dashed=1;startArrow=open;startFill=0;endArrow=none;endFill=0;" parent="1" source="gRiRTF0oyaMVw7NNhwGu-2" target="gRiRTF0oyaMVw7NNhwGu-53" edge="1">
          <mxGeometry relative="1" as="geometry" />
        </mxCell>
        <mxCell id="gRiRTF0oyaMVw7NNhwGu-2" value="&quot;КУБІК: твій СПФ&quot;&lt;div&gt;main page&lt;/div&gt;" style="ellipse;whiteSpace=wrap;html=1;verticalAlign=middle;" parent="1" vertex="1">
          <mxGeometry x="1435" y="550" width="160" height="80" as="geometry" />
        </mxCell>
        <mxCell id="gRiRTF0oyaMVw7NNhwGu-39" value="&amp;lt;&amp;lt; extend &amp;gt;&amp;gt;" style="rounded=0;orthogonalLoop=1;jettySize=auto;html=1;dashed=1;startArrow=open;startFill=0;endArrow=none;endFill=0;" parent="1" source="gRiRTF0oyaMVw7NNhwGu-4" target="gRiRTF0oyaMVw7NNhwGu-38" edge="1">
          <mxGeometry relative="1" as="geometry" />
        </mxCell>
        <mxCell id="gRiRTF0oyaMVw7NNhwGu-46" style="rounded=0;orthogonalLoop=1;jettySize=auto;html=1;dashed=1;endArrow=none;endFill=0;" parent="1" source="gRiRTF0oyaMVw7NNhwGu-4" target="gRiRTF0oyaMVw7NNhwGu-45" edge="1">
          <mxGeometry relative="1" as="geometry" />
        </mxCell>
        <mxCell id="gRiRTF0oyaMVw7NNhwGu-4" value="Events" style="ellipse;whiteSpace=wrap;html=1;verticalAlign=middle;" parent="1" vertex="1">
          <mxGeometry x="1110" y="460" width="100" height="50" as="geometry" />
        </mxCell>
        <mxCell id="gRiRTF0oyaMVw7NNhwGu-34" value="&amp;lt;&amp;lt; extend &amp;gt;&amp;gt;" style="rounded=0;orthogonalLoop=1;jettySize=auto;html=1;endArrow=none;endFill=0;startArrow=open;startFill=0;dashed=1;" parent="1" source="gRiRTF0oyaMVw7NNhwGu-6" target="gRiRTF0oyaMVw7NNhwGu-33" edge="1">
          <mxGeometry relative="1" as="geometry" />
        </mxCell>
        <mxCell id="gRiRTF0oyaMVw7NNhwGu-6" value="News" style="ellipse;whiteSpace=wrap;html=1;verticalAlign=middle;" parent="1" vertex="1">
          <mxGeometry x="1400" y="700" width="100" height="50" as="geometry" />
        </mxCell>
        <mxCell id="gRiRTF0oyaMVw7NNhwGu-11" value="&amp;lt;&amp;lt; include &amp;gt;&amp;gt;" style="rounded=0;orthogonalLoop=1;jettySize=auto;html=1;dashed=1;startArrow=none;startFill=0;endArrow=open;endFill=0;" parent="1" source="gRiRTF0oyaMVw7NNhwGu-8" target="gRiRTF0oyaMVw7NNhwGu-10" edge="1">
          <mxGeometry relative="1" as="geometry" />
        </mxCell>
        <mxCell id="gRiRTF0oyaMVw7NNhwGu-8" value="Log in / Sign up&amp;nbsp;" style="ellipse;whiteSpace=wrap;html=1;verticalAlign=middle;" parent="1" vertex="1">
          <mxGeometry x="1820" y="700" width="130" height="60" as="geometry" />
        </mxCell>
        <mxCell id="gRiRTF0oyaMVw7NNhwGu-19" value="&amp;lt;&amp;lt; include &amp;gt;&amp;gt;" style="rounded=0;orthogonalLoop=1;jettySize=auto;html=1;dashed=1;endArrow=open;endFill=0;" parent="1" source="gRiRTF0oyaMVw7NNhwGu-10" target="gRiRTF0oyaMVw7NNhwGu-18" edge="1">
          <mxGeometry x="0.5122" y="2" relative="1" as="geometry">
            <mxPoint as="offset" />
          </mxGeometry>
        </mxCell>
        <mxCell id="gRiRTF0oyaMVw7NNhwGu-23" value="&amp;lt;&amp;lt; include &amp;gt;&amp;gt;" style="rounded=0;orthogonalLoop=1;jettySize=auto;html=1;dashed=1;endArrow=open;endFill=0;" parent="1" source="gRiRTF0oyaMVw7NNhwGu-10" target="gRiRTF0oyaMVw7NNhwGu-22" edge="1">
          <mxGeometry relative="1" as="geometry" />
        </mxCell>
        <mxCell id="gRiRTF0oyaMVw7NNhwGu-10" value="Enter email and password" style="ellipse;whiteSpace=wrap;html=1;verticalAlign=middle;" parent="1" vertex="1">
          <mxGeometry x="1840" y="850" width="130" height="60" as="geometry" />
        </mxCell>
        <mxCell id="gRiRTF0oyaMVw7NNhwGu-17" value="" style="rounded=0;orthogonalLoop=1;jettySize=auto;html=1;dashed=1;endArrow=none;endFill=0;" parent="1" source="gRiRTF0oyaMVw7NNhwGu-14" target="gRiRTF0oyaMVw7NNhwGu-10" edge="1">
          <mxGeometry relative="1" as="geometry" />
        </mxCell>
        <mxCell id="gRiRTF0oyaMVw7NNhwGu-14" value="Check if&amp;nbsp;&lt;div&gt;user already exist?&amp;nbsp;&lt;div&gt;log in : sign in&lt;/div&gt;&lt;/div&gt;" style="shape=note;whiteSpace=wrap;html=1;backgroundOutline=1;darkOpacity=0.05;size=18;" parent="1" vertex="1">
          <mxGeometry x="2000" y="910" width="130" height="70" as="geometry" />
        </mxCell>
        <mxCell id="gRiRTF0oyaMVw7NNhwGu-18" value="Log in" style="ellipse;whiteSpace=wrap;html=1;verticalAlign=middle;" parent="1" vertex="1">
          <mxGeometry x="1700" y="990" width="110" height="40" as="geometry" />
        </mxCell>
        <mxCell id="gRiRTF0oyaMVw7NNhwGu-26" value="&amp;lt;&amp;lt; extend &amp;gt;&amp;gt;" style="rounded=0;orthogonalLoop=1;jettySize=auto;html=1;dashed=1;startArrow=open;startFill=0;endArrow=none;endFill=0;" parent="1" source="gRiRTF0oyaMVw7NNhwGu-22" target="gRiRTF0oyaMVw7NNhwGu-25" edge="1">
          <mxGeometry relative="1" as="geometry" />
        </mxCell>
        <mxCell id="gRiRTF0oyaMVw7NNhwGu-22" value="Sign in" style="ellipse;whiteSpace=wrap;html=1;verticalAlign=middle;" parent="1" vertex="1">
          <mxGeometry x="1900" y="1000" width="115" height="50" as="geometry" />
        </mxCell>
        <mxCell id="gRiRTF0oyaMVw7NNhwGu-24" value="&amp;lt;&amp;lt; include &amp;gt;&amp;gt;" style="endArrow=open;dashed=1;html=1;rounded=0;exitX=0.273;exitY=0;exitDx=0;exitDy=0;exitPerimeter=0;entryX=1;entryY=1;entryDx=0;entryDy=0;endFill=0;" parent="1" source="gRiRTF0oyaMVw7NNhwGu-18" target="gRiRTF0oyaMVw7NNhwGu-2" edge="1">
          <mxGeometry x="0.2059" y="16" width="50" height="50" relative="1" as="geometry">
            <mxPoint x="1650" y="900" as="sourcePoint" />
            <mxPoint x="1700" y="850" as="targetPoint" />
            <Array as="points" />
            <mxPoint as="offset" />
          </mxGeometry>
        </mxCell>
        <mxCell id="gRiRTF0oyaMVw7NNhwGu-28" value="&amp;lt;&amp;lt; include &amp;gt;&amp;gt;" style="rounded=0;orthogonalLoop=1;jettySize=auto;html=1;entryX=1.017;entryY=0.408;entryDx=0;entryDy=0;entryPerimeter=0;dashed=1;endArrow=open;endFill=0;" parent="1" source="gRiRTF0oyaMVw7NNhwGu-25" target="gRiRTF0oyaMVw7NNhwGu-2" edge="1">
          <mxGeometry x="-0.3223" y="-8" relative="1" as="geometry">
            <mxPoint x="1740" y="779.9999999999999" as="targetPoint" />
            <Array as="points">
              <mxPoint x="2160" y="1110" />
              <mxPoint x="2220" y="930" />
              <mxPoint x="2010" y="610" />
            </Array>
            <mxPoint as="offset" />
          </mxGeometry>
        </mxCell>
        <mxCell id="gRiRTF0oyaMVw7NNhwGu-25" value="Enter: name, university, faculty" style="ellipse;whiteSpace=wrap;html=1;verticalAlign=middle;" parent="1" vertex="1">
          <mxGeometry x="1900" y="1160" width="110" height="65" as="geometry" />
        </mxCell>
        <mxCell id="gRiRTF0oyaMVw7NNhwGu-31" style="rounded=0;orthogonalLoop=1;jettySize=auto;html=1;entryX=0.733;entryY=0.961;entryDx=0;entryDy=0;dashed=1;endArrow=none;endFill=0;entryPerimeter=0;" parent="1" source="gRiRTF0oyaMVw7NNhwGu-30" target="gRiRTF0oyaMVw7NNhwGu-4" edge="1">
          <mxGeometry relative="1" as="geometry" />
        </mxCell>
        <mxCell id="gRiRTF0oyaMVw7NNhwGu-32" style="rounded=0;orthogonalLoop=1;jettySize=auto;html=1;entryX=0;entryY=0.5;entryDx=0;entryDy=0;dashed=1;endArrow=none;endFill=0;" parent="1" source="gRiRTF0oyaMVw7NNhwGu-30" target="gRiRTF0oyaMVw7NNhwGu-6" edge="1">
          <mxGeometry relative="1" as="geometry" />
        </mxCell>
        <mxCell id="gRiRTF0oyaMVw7NNhwGu-30" value="Filter by tags:&lt;div&gt;- all&lt;/div&gt;&lt;div&gt;- Culture department&lt;/div&gt;&lt;div&gt;- Scientific department&lt;/div&gt;&lt;div&gt;- Co-working &quot;Читалка&quot;&lt;/div&gt;&lt;div&gt;&lt;br&gt;&lt;/div&gt;&lt;div&gt;Filter by&lt;span style=&quot;background-color: initial;&quot;&gt;&amp;nbsp;date:&lt;/span&gt;&lt;/div&gt;&lt;div&gt;&lt;div&gt;- ascending&lt;/div&gt;&lt;div&gt;- descending&lt;/div&gt;&lt;/div&gt;" style="shape=note;whiteSpace=wrap;html=1;backgroundOutline=1;darkOpacity=0.05;size=20;" parent="1" vertex="1">
          <mxGeometry x="1180" y="600" width="150" height="170" as="geometry" />
        </mxCell>
        <mxCell id="gRiRTF0oyaMVw7NNhwGu-36" value="&amp;lt;&amp;lt; extend &amp;gt;&amp;gt;" style="rounded=0;orthogonalLoop=1;jettySize=auto;html=1;dashed=1;startArrow=open;startFill=0;endArrow=none;endFill=0;" parent="1" source="gRiRTF0oyaMVw7NNhwGu-33" target="gRiRTF0oyaMVw7NNhwGu-35" edge="1">
          <mxGeometry relative="1" as="geometry" />
        </mxCell>
        <mxCell id="gRiRTF0oyaMVw7NNhwGu-33" value="Click on specific article" style="ellipse;whiteSpace=wrap;html=1;verticalAlign=middle;" parent="1" vertex="1">
          <mxGeometry x="1395" y="800" width="110" height="60" as="geometry" />
        </mxCell>
        <mxCell id="gRiRTF0oyaMVw7NNhwGu-35" value="Copy link to the article" style="ellipse;whiteSpace=wrap;html=1;verticalAlign=middle;" parent="1" vertex="1">
          <mxGeometry x="1380" y="930" width="120" height="60" as="geometry" />
        </mxCell>
        <mxCell id="gRiRTF0oyaMVw7NNhwGu-41" value="&amp;lt;&amp;lt; extend &amp;gt;&amp;gt;" style="rounded=0;orthogonalLoop=1;jettySize=auto;html=1;dashed=1;startArrow=open;startFill=0;endArrow=none;endFill=0;" parent="1" source="gRiRTF0oyaMVw7NNhwGu-38" target="gRiRTF0oyaMVw7NNhwGu-40" edge="1">
          <mxGeometry relative="1" as="geometry" />
        </mxCell>
        <mxCell id="gRiRTF0oyaMVw7NNhwGu-43" style="rounded=0;orthogonalLoop=1;jettySize=auto;html=1;dashed=1;startArrow=none;startFill=0;endArrow=none;endFill=0;entryX=0.72;entryY=0.014;entryDx=0;entryDy=0;entryPerimeter=0;" parent="1" source="gRiRTF0oyaMVw7NNhwGu-38" target="gRiRTF0oyaMVw7NNhwGu-42" edge="1">
          <mxGeometry relative="1" as="geometry" />
        </mxCell>
        <mxCell id="gRiRTF0oyaMVw7NNhwGu-38" value="Click on specific event" style="ellipse;whiteSpace=wrap;html=1;verticalAlign=middle;" parent="1" vertex="1">
          <mxGeometry x="1020" y="680" width="110" height="70" as="geometry" />
        </mxCell>
        <mxCell id="gRiRTF0oyaMVw7NNhwGu-44" value="&amp;lt;&amp;lt; include &amp;gt;&amp;gt;" style="rounded=0;orthogonalLoop=1;jettySize=auto;html=1;entryX=0;entryY=1;entryDx=0;entryDy=0;dashed=1;endArrow=open;endFill=0;" parent="1" source="gRiRTF0oyaMVw7NNhwGu-40" target="gRiRTF0oyaMVw7NNhwGu-8" edge="1">
          <mxGeometry x="-0.5324" y="4" relative="1" as="geometry">
            <Array as="points">
              <mxPoint x="1220" y="1020" />
              <mxPoint x="1500" y="1040" />
            </Array>
            <mxPoint as="offset" />
          </mxGeometry>
        </mxCell>
        <mxCell id="gRiRTF0oyaMVw7NNhwGu-40" value="Going to join the event" style="ellipse;whiteSpace=wrap;html=1;verticalAlign=middle;" parent="1" vertex="1">
          <mxGeometry x="980" y="880" width="115" height="65" as="geometry" />
        </mxCell>
        <mxCell id="gRiRTF0oyaMVw7NNhwGu-42" value="Includes information about:&lt;div&gt;- organizator&lt;/div&gt;&lt;div&gt;- date&lt;/div&gt;&lt;div&gt;- duration&lt;/div&gt;&lt;div&gt;- place&lt;/div&gt;&lt;div&gt;- who can join&amp;nbsp;&lt;/div&gt;&lt;div&gt;(for KNU students or for all)&lt;/div&gt;" style="shape=note;whiteSpace=wrap;html=1;backgroundOutline=1;darkOpacity=0.05;size=20;" parent="1" vertex="1">
          <mxGeometry x="760" y="690" width="210" height="130" as="geometry" />
        </mxCell>
        <mxCell id="gRiRTF0oyaMVw7NNhwGu-45" value="Filter by:&lt;div&gt;- organizator&lt;/div&gt;&lt;div&gt;&lt;div&gt;- place&lt;/div&gt;&lt;div&gt;- accessibility&lt;/div&gt;&lt;div&gt;- members (ascending, descending)&lt;/div&gt;&lt;/div&gt;" style="shape=note;whiteSpace=wrap;html=1;backgroundOutline=1;darkOpacity=0.05;size=23;" parent="1" vertex="1">
          <mxGeometry x="870" y="450" width="170" height="100" as="geometry" />
        </mxCell>
        <mxCell id="gRiRTF0oyaMVw7NNhwGu-49" value="If not authorizied -&amp;gt; login/signin" style="shape=note;whiteSpace=wrap;html=1;backgroundOutline=1;darkOpacity=0.05;size=18;" parent="1" vertex="1">
          <mxGeometry x="810" y="950" width="150" height="50" as="geometry" />
        </mxCell>
        <mxCell id="gRiRTF0oyaMVw7NNhwGu-50" style="rounded=0;orthogonalLoop=1;jettySize=auto;html=1;entryX=0.718;entryY=0.023;entryDx=0;entryDy=0;entryPerimeter=0;dashed=1;endArrow=none;endFill=0;" parent="1" source="gRiRTF0oyaMVw7NNhwGu-40" target="gRiRTF0oyaMVw7NNhwGu-49" edge="1">
          <mxGeometry relative="1" as="geometry" />
        </mxCell>
        <mxCell id="gRiRTF0oyaMVw7NNhwGu-58" value="&amp;lt;&amp;lt; extend &amp;gt;&amp;gt;" style="rounded=0;orthogonalLoop=1;jettySize=auto;html=1;dashed=1;startArrow=open;startFill=0;endArrow=none;endFill=0;" parent="1" source="gRiRTF0oyaMVw7NNhwGu-53" target="gRiRTF0oyaMVw7NNhwGu-57" edge="1">
          <mxGeometry relative="1" as="geometry" />
        </mxCell>
        <mxCell id="gRiRTF0oyaMVw7NNhwGu-64" value="&amp;lt;&amp;lt; extend &amp;gt;&amp;gt;" style="rounded=0;orthogonalLoop=1;jettySize=auto;html=1;startArrow=open;startFill=0;endArrow=none;endFill=0;dashed=1;" parent="1" source="gRiRTF0oyaMVw7NNhwGu-53" target="gRiRTF0oyaMVw7NNhwGu-63" edge="1">
          <mxGeometry relative="1" as="geometry" />
        </mxCell>
        <mxCell id="gRiRTF0oyaMVw7NNhwGu-53" value="Profile" style="ellipse;whiteSpace=wrap;html=1;verticalAlign=middle;" parent="1" vertex="1">
          <mxGeometry x="1750" y="390" width="120" height="50" as="geometry" />
        </mxCell>
        <mxCell id="gRiRTF0oyaMVw7NNhwGu-55" value="If not authorizied -&amp;gt; login/signin" style="shape=note;whiteSpace=wrap;html=1;backgroundOutline=1;darkOpacity=0.05;size=18;" parent="1" vertex="1">
          <mxGeometry x="1680" y="290" width="150" height="50" as="geometry" />
        </mxCell>
        <mxCell id="gRiRTF0oyaMVw7NNhwGu-56" style="rounded=0;orthogonalLoop=1;jettySize=auto;html=1;entryX=0.5;entryY=0;entryDx=0;entryDy=0;dashed=1;endArrow=none;endFill=0;" parent="1" source="gRiRTF0oyaMVw7NNhwGu-55" target="gRiRTF0oyaMVw7NNhwGu-53" edge="1">
          <mxGeometry relative="1" as="geometry" />
        </mxCell>
        <mxCell id="gRiRTF0oyaMVw7NNhwGu-61" value="&amp;lt;&amp;lt; extend &amp;gt;&amp;gt;" style="rounded=0;orthogonalLoop=1;jettySize=auto;html=1;dashed=1;startArrow=open;startFill=0;endArrow=none;endFill=0;" parent="1" source="gRiRTF0oyaMVw7NNhwGu-57" target="gRiRTF0oyaMVw7NNhwGu-60" edge="1">
          <mxGeometry relative="1" as="geometry" />
        </mxCell>
        <mxCell id="gRiRTF0oyaMVw7NNhwGu-69" value="&amp;lt;&amp;lt; extend &amp;gt;&amp;gt;" style="rounded=0;orthogonalLoop=1;jettySize=auto;html=1;dashed=1;startArrow=open;startFill=0;endArrow=none;endFill=0;" parent="1" source="gRiRTF0oyaMVw7NNhwGu-57" target="gRiRTF0oyaMVw7NNhwGu-68" edge="1">
          <mxGeometry relative="1" as="geometry" />
        </mxCell>
        <mxCell id="gRiRTF0oyaMVw7NNhwGu-57" value="Future events" style="ellipse;whiteSpace=wrap;html=1;verticalAlign=middle;" parent="1" vertex="1">
          <mxGeometry x="1990" y="390" width="120" height="50" as="geometry" />
        </mxCell>
        <mxCell id="gRiRTF0oyaMVw7NNhwGu-59" value="&amp;lt;&amp;lt; include &amp;gt;&amp;gt;" style="rounded=0;orthogonalLoop=1;jettySize=auto;html=1;entryX=0.555;entryY=-0.026;entryDx=0;entryDy=0;entryPerimeter=0;dashed=1;endArrow=open;endFill=0;" parent="1" source="gRiRTF0oyaMVw7NNhwGu-53" target="gRiRTF0oyaMVw7NNhwGu-8" edge="1">
          <mxGeometry relative="1" as="geometry" />
        </mxCell>
        <mxCell id="gRiRTF0oyaMVw7NNhwGu-60" value="Unjoin the event" style="ellipse;whiteSpace=wrap;html=1;verticalAlign=middle;" parent="1" vertex="1">
          <mxGeometry x="2410" y="350" width="120" height="50" as="geometry" />
        </mxCell>
        <mxCell id="gRiRTF0oyaMVw7NNhwGu-63" value="Update profile" style="ellipse;whiteSpace=wrap;html=1;verticalAlign=middle;" parent="1" vertex="1">
          <mxGeometry x="1990" y="500" width="120" height="50" as="geometry" />
        </mxCell>
        <mxCell id="gRiRTF0oyaMVw7NNhwGu-65" value="Change or add:&lt;div&gt;name, university, faculty&lt;/div&gt;" style="shape=note;whiteSpace=wrap;html=1;backgroundOutline=1;darkOpacity=0.05;size=23;" parent="1" vertex="1">
          <mxGeometry x="2200" y="530" width="160" height="70" as="geometry" />
        </mxCell>
        <mxCell id="gRiRTF0oyaMVw7NNhwGu-66" style="rounded=0;orthogonalLoop=1;jettySize=auto;html=1;entryX=-0.016;entryY=0.318;entryDx=0;entryDy=0;entryPerimeter=0;dashed=1;endArrow=none;endFill=0;" parent="1" source="gRiRTF0oyaMVw7NNhwGu-63" target="gRiRTF0oyaMVw7NNhwGu-65" edge="1">
          <mxGeometry relative="1" as="geometry" />
        </mxCell>
        <mxCell id="gRiRTF0oyaMVw7NNhwGu-68" value="Copy link to the event" style="ellipse;whiteSpace=wrap;html=1;verticalAlign=middle;" parent="1" vertex="1">
          <mxGeometry x="2225" y="440" width="110" height="60" as="geometry" />
        </mxCell>
        <mxCell id="gRiRTF0oyaMVw7NNhwGu-72" value="&amp;lt;&amp;lt; extend &amp;gt;&amp;gt;" style="rounded=0;orthogonalLoop=1;jettySize=auto;html=1;dashed=1;endArrow=open;endFill=0;" parent="1" source="gRiRTF0oyaMVw7NNhwGu-71" target="gRiRTF0oyaMVw7NNhwGu-38" edge="1">
          <mxGeometry relative="1" as="geometry" />
        </mxCell>
        <mxCell id="gRiRTF0oyaMVw7NNhwGu-71" value="Copy link to the event" style="ellipse;whiteSpace=wrap;html=1;verticalAlign=middle;" parent="1" vertex="1">
          <mxGeometry x="1170" y="860" width="110" height="60" as="geometry" />
        </mxCell>
        <mxCell id="gRiRTF0oyaMVw7NNhwGu-74" value="&amp;lt;&amp;lt; extend &amp;gt;&amp;gt;" style="rounded=0;orthogonalLoop=1;jettySize=auto;html=1;entryX=1;entryY=0;entryDx=0;entryDy=0;endArrow=open;endFill=0;dashed=1;" parent="1" source="gRiRTF0oyaMVw7NNhwGu-73" target="gRiRTF0oyaMVw7NNhwGu-53" edge="1">
          <mxGeometry relative="1" as="geometry" />
        </mxCell>
        <mxCell id="gRiRTF0oyaMVw7NNhwGu-73" value="Archive events" style="ellipse;whiteSpace=wrap;html=1;" parent="1" vertex="1">
          <mxGeometry x="1970" y="270" width="120" height="50" as="geometry" />
        </mxCell>
        <mxCell id="gRiRTF0oyaMVw7NNhwGu-75" value="Filter by tags:&lt;div&gt;- all&lt;/div&gt;&lt;div&gt;- Culture department&lt;/div&gt;&lt;div&gt;- Scientific department&lt;/div&gt;&lt;div&gt;- Co-working &quot;Читалка&quot;&lt;/div&gt;&lt;div&gt;&lt;br&gt;&lt;/div&gt;&lt;div&gt;Filter by&lt;span style=&quot;background-color: initial;&quot;&gt;&amp;nbsp;date:&lt;/span&gt;&lt;/div&gt;&lt;div&gt;&lt;div&gt;- ascending&lt;/div&gt;&lt;div&gt;- descending&lt;/div&gt;&lt;/div&gt;" style="shape=note;whiteSpace=wrap;html=1;backgroundOutline=1;darkOpacity=0.05;size=20;" parent="1" vertex="1">
          <mxGeometry x="2170" y="200" width="150" height="170" as="geometry" />
        </mxCell>
        <mxCell id="gRiRTF0oyaMVw7NNhwGu-76" style="rounded=0;orthogonalLoop=1;jettySize=auto;html=1;entryX=0.796;entryY=0.121;entryDx=0;entryDy=0;entryPerimeter=0;dashed=1;endArrow=none;endFill=0;" parent="1" source="gRiRTF0oyaMVw7NNhwGu-75" target="gRiRTF0oyaMVw7NNhwGu-57" edge="1">
          <mxGeometry relative="1" as="geometry" />
        </mxCell>
        <mxCell id="gRiRTF0oyaMVw7NNhwGu-77" style="rounded=0;orthogonalLoop=1;jettySize=auto;html=1;entryX=0.01;entryY=0.452;entryDx=0;entryDy=0;entryPerimeter=0;dashed=1;endArrow=none;endFill=0;" parent="1" source="gRiRTF0oyaMVw7NNhwGu-73" target="gRiRTF0oyaMVw7NNhwGu-75" edge="1">
          <mxGeometry relative="1" as="geometry" />
        </mxCell>
        <mxCell id="gRiRTF0oyaMVw7NNhwGu-79" value="Rate event (1 to 5)" style="ellipse;whiteSpace=wrap;html=1;" parent="1" vertex="1">
          <mxGeometry x="2040" y="160" width="110" height="60" as="geometry" />
        </mxCell>
        <mxCell id="gRiRTF0oyaMVw7NNhwGu-80" value="&amp;lt;&amp;lt; extend &amp;gt;&amp;gt;" style="rounded=0;orthogonalLoop=1;jettySize=auto;html=1;entryX=0.201;entryY=0.966;entryDx=0;entryDy=0;entryPerimeter=0;startArrow=open;startFill=0;endArrow=none;endFill=0;dashed=1;" parent="1" source="gRiRTF0oyaMVw7NNhwGu-73" target="gRiRTF0oyaMVw7NNhwGu-79" edge="1">
          <mxGeometry relative="1" as="geometry" />
        </mxCell>
      </root>
    </mxGraphModel>
  </diagram>
</mxfile>
